<svg width="270" height="80" viewBox="0 0 270 80" fill="none" xmlns="http://www.w3.org/2000/svg">
  <path
    d="M28.1729 48.5001H23.2714L28.3464 38.408V39.3623L23.4594 30.022H28.2597L31.5128 36.5862H31.7586L35.0118 30.022H39.8121L34.9106 39.3623V38.408L39.9856 48.5001H35.0841L31.7586 41.4588H31.5128L28.1729 48.5001ZM57.5934 45.406V49.2809L49.5834 48.9628C46.335 48.8279 43.9975 48.1001 42.571 46.7795C41.1444 45.459 40.4311 43.5071 40.4311 40.9238V37.5694C40.4311 35.0343 41.1058 33.0776 42.4553 31.6992C43.8144 30.3112 45.829 29.6172 48.499 29.6172C50.2726 29.6172 51.757 29.9256 52.9522 30.5425C54.1475 31.1594 55.0439 32.0607 55.6415 33.2463C56.2488 34.4223 56.5524 35.8585 56.5524 37.555V40.0563C56.5524 40.866 56.456 41.5841 56.2632 42.2106C56.0801 42.8275 55.8102 43.3577 55.4536 43.8011C55.1066 44.2348 54.6824 44.5867 54.1812 44.8566C53.68 45.1168 53.1161 45.3 52.4896 45.406V45.5795L57.5934 45.406ZM48.9038 45.1746L49.381 45.1891C49.7569 45.0831 50.0991 44.9144 50.4075 44.6831C50.716 44.4517 50.9859 44.1625 51.2172 43.8155C51.4485 43.4685 51.6269 43.054 51.7522 42.5721C51.8871 42.0805 51.9546 41.5263 51.9546 40.9094V37.3815C51.9546 36.0802 51.6702 35.0825 51.1015 34.3885C50.5328 33.6945 49.6653 33.3475 48.499 33.3475C47.3327 33.3475 46.4651 33.6945 45.8964 34.3885C45.3277 35.0825 45.0434 36.0802 45.0434 37.3815V41.1118C45.0434 42.4131 45.3904 43.4059 46.0844 44.0902C46.7784 44.7746 47.7182 45.1361 48.9038 45.1746Z"
    fill="currentColor" />
  <rect x="1.92145" y="1.82843" width="76.7693" height="76.3432" rx="1.60651" stroke="currentColor"
    stroke-width="3.21302" stroke-linecap="round" stroke-dasharray="6.43 6.43" />
<svg width="400" height="100" viewBox="0 0 400 100" fill="none" xmlns="http://www.w3.org/2000/svg">
  <rect width="400" height="100" fill="white"/>
  
  <text x="20" y="100" font-family="Arial, sans-serif" font-size="45" font-weight="bold" fill="#1A73E8">
    NETLIVY
    <tspan fill="#EA4335"> quiz</tspan>
  </text>
  
  <path d="M20 75 L180 75" stroke="#1A73E8" stroke-width="3" stroke-linecap="round"/>
</svg>
    fill="currentColor" />
</svg>