<svg width="270" height="80" viewBox="0 0 270 80" fill="none" xmlns="http://www.w3.org/2000/svg">
  <path
    d="M28.1729 48.5001H23.2714L28.3464 38.408V39.3623L23.4594 30.022H28.2597L31.5128 36.5862H31.7586L35.0118 30.022H39.8121L34.9106 39.3623V38.408L39.9856 48.5001H35.0841L31.7586 41.4588H31.5128L28.1729 48.5001ZM57.5934 45.406V49.2809L49.5834 48.9628C46.335 48.8279 43.9975 48.1001 42.571 46.7795C41.1444 45.459 40.4311 43.5071 40.4311 40.9238V37.5694C40.4311 35.0343 41.1058 33.0776 42.4553 31.6992C43.8144 30.3112 45.829 29.6172 48.499 29.6172C50.2726 29.6172 51.757 29.9256 52.9522 30.5425C54.1475 31.1594 55.0439 32.0607 55.6415 33.2463C56.2488 34.4223 56.5524 35.8585 56.5524 37.555V40.0563C56.5524 40.866 56.456 41.5841 56.2632 42.2106C56.0801 42.8275 55.8102 43.3577 55.4536 43.8011C55.1066 44.2348 54.6824 44.5867 54.1812 44.8566C53.68 45.1168 53.1161 45.3 52.4896 45.406V45.5795L57.5934 45.406ZM48.9038 45.1746L49.381 45.1891C49.7569 45.0831 50.0991 44.9144 50.4075 44.6831C50.716 44.4517 50.9859 44.1625 51.2172 43.8155C51.4485 43.4685 51.6269 43.054 51.7522 42.5721C51.8871 42.0805 51.9546 41.5263 51.9546 40.9094V37.3815C51.9546 36.0802 51.6702 35.0825 51.1015 34.3885C50.5328 33.6945 49.6653 33.3475 48.499 33.3475C47.3327 33.3475 46.4651 33.6945 45.8964 34.3885C45.3277 35.0825 45.0434 36.0802 45.0434 37.3815V41.1118C45.0434 42.4131 45.3904 43.4059 46.0844 44.0902C46.7784 44.7746 47.7182 45.1361 48.9038 45.1746Z"
    fill="currentColor" />
  <rect x="1.92145" y="1.82843" width="76.7693" height="76.3432" rx="1.60651" stroke="currentColor"
    stroke-width="3.21302" stroke-linecap="round" stroke-dasharray="6.43 6.43" />
 
    <svg viewBox="0 0 300 80" xmlns="http://www.w3.org/2000/svg">
  <path d="M20 50 L20 20 Q20 18 22 18 L25 18 Q27 18 27 20 L27 40 L45 20 Q46 18 48 18 L52 18 Q55 18 55 21 L55 50 Q55 52 53 52 L50 52 Q48 52 48 50 L48 30 L30 50 Q29 52 27 52 L23 52 Q20 52 20 50 Z 
           M65 40 Q65 30 75 30 Q85 30 85 40 L85 42 L65 42 Q65 45 68 48 Q72 50 78 50 Q82 50 85 48 L86 50 Q83 53 78 53 Q65 53 65 40 M75 33 Q68 33 66 40 L83 40 Q83 33 75 33 Z
           M95 20 L95 18 Q95 15 98 15 L102 15 Q105 15 105 18 L105 20 L105 45 Q105 50 115 50 L117 50 L117 53 L115 53 Q100 53 100 45 L100 20 Z
           M125 20 Q125 18 128 18 L132 18 Q135 18 135 20 L135 50 Q135 52 132 52 L128 52 Q125 52 125 50 L125 20 Z
           M145 20 Q145 18 148 18 L152 18 Q155 18 155 20 L155 50 Q155 52 152 52 L148 52 Q145 52 145 50 L145 20 Z
           M165 30 L170 45 L175 30 L180 30 L172 50 Q170 55 165 55 L162 55 L162 52 L165 52 Q168 52 169 50 L160 30 Z
           M200 40 Q200 30 210 30 Q220 30 220 40 Q220 52 210 52 Q200 52 200 40 M210 49 Q217 49 217 40 Q217 33 210 33 Q203 33 203 40 Q203 49 210 49 Z
           M230 30 L230 45 Q230 50 235 50 Q240 50 240 45 L240 30 L245 30 L245 45 Q245 53 235 53 Q225 53 225 45 L225 30 Z
           M255 20 L255 18 L260 18 L260 20 L260 30 L255 30 L255 33 L260 33 L260 50 L265 50 L265 33 L270 33 L270 30 L265 30 L265 20 Z
           M275 48 L285 33 L275 33 L275 30 L290 30 L290 33 L280 48 L290 48 L290 52 L275 52 Z" 
        fill="#000"/>
</svg>
    fill="currentColor" />
</svg>